<svg id="Layer_1" data-name="Layer 1" xmlns="http://www.w3.org/2000/svg" xmlns:xlink="http://www.w3.org/1999/xlink" viewBox="0 0 500 500"><defs><style>.cls-1,.cls-11,.cls-13,.cls-14,.cls-5,.cls-7,.cls-8{fill:none;}.cls-10,.cls-2{fill:#75ffc0;}.cls-10,.cls-11,.cls-14,.cls-2,.cls-4,.cls-5,.cls-6,.cls-9{stroke:#222;}.cls-10,.cls-11,.cls-13,.cls-14,.cls-2,.cls-4,.cls-5,.cls-6,.cls-7,.cls-8,.cls-9{stroke-miterlimit:10;}.cls-11,.cls-2{stroke-width:20px;}.cls-3{clip-path:url(#clip-path);}.cls-4{fill:#fff;}.cls-10,.cls-13,.cls-4,.cls-5,.cls-6,.cls-7,.cls-8,.cls-9{stroke-width:10px;}.cls-6{fill:#e6e6e6;}.cls-13,.cls-7,.cls-8{stroke:#ef303b;}.cls-8{stroke-dasharray:12.96 12.96;}.cls-9{fill:#ef303b;}.cls-12{clip-path:url(#clip-path-2);}.cls-13{stroke-dasharray:11.61 11.61;}.cls-14{stroke-width:43px;}</style><clipPath id="clip-path"><path class="cls-1" d="M22.07,19.77l1.44,252.75S18,315,52.46,360.39s97.77,90.92,97.77,90.92l92.37-8.37,70.64-238.88-40-131.42-24-75.79Z"/></clipPath><clipPath id="clip-path-2"><circle class="cls-1" cx="250" cy="250" r="227.08"/></clipPath></defs><title>how-4</title><circle class="cls-2" cx="250" cy="250" r="227.08"/><g class="cls-3"><rect class="cls-4" x="41.28" y="48.4" width="208.72" height="363.1" rx="14.54" ry="14.54"/><line class="cls-5" x1="46.84" y1="361.09" x2="250" y2="361.09"/><line class="cls-5" x1="46.84" y1="75.79" x2="250" y2="75.79"/><rect class="cls-6" x="73.07" y="100.32" width="145.15" height="134.96"/><path class="cls-7" d="M145.63,207.21c-20.16-1.23-39-21.69-39.54-49.07"/><path class="cls-7" d="M180.21,130.75a51.19,51.19,0,0,1,3.2,5.07"/><path class="cls-8" d="M188.16,147.85a47.85,47.85,0,0,1-4.58,35.42c-5.08,8.93-14.24,18.46-25.67,22.27"/><path class="cls-7" d="M151.62,207a31.57,31.57,0,0,1-6,.2"/><circle class="cls-9" cx="180.21" cy="130.75" r="12.87"/><circle class="cls-9" cx="145.63" cy="207.21" r="12.87"/><rect class="cls-10" x="93.89" y="145.95" width="24.39" height="24.39"/><line class="cls-11" x1="74.25" y1="268.03" x2="180.28" y2="268.03"/><line class="cls-5" x1="74.25" y1="313.1" x2="189.07" y2="313.1"/><line class="cls-5" x1="74.25" y1="336.16" x2="212.85" y2="336.16"/></g><g class="cls-12"><rect class="cls-4" x="180.28" y="170.34" width="364.62" height="352.5"/><rect class="cls-6" x="204.32" y="194.81" width="197.41" height="183.54"/><path class="cls-7" d="M303,340.18c-27.42-1.67-53-29.5-53.77-66.73"/><path class="cls-7" d="M350,236.2q1.76,2.46,3.28,5"/><path class="cls-13" d="M358.38,251.67a65.58,65.58,0,0,1-3.75,56c-7.63,13.41-22,27.83-39.89,31.65"/><path class="cls-7" d="M309,340.12a42.84,42.84,0,0,1-6,.05"/><circle class="cls-9" cx="350.03" cy="236.2" r="17.5"/><circle class="cls-9" cx="303" cy="340.18" r="17.5"/><rect class="cls-10" x="232.64" y="256.86" width="33.17" height="33.17"/><line class="cls-5" x1="204.32" y1="405.84" x2="422.77" y2="405.84"/><line class="cls-5" x1="204.32" y1="438.84" x2="422.77" y2="438.84"/><line class="cls-5" x1="204.32" y1="471.84" x2="422.77" y2="471.84"/><line class="cls-5" x1="239.78" y1="504.84" x2="422.77" y2="504.84"/><line class="cls-14" x1="423.84" y1="217.73" x2="642.29" y2="217.73"/><line class="cls-5" x1="423.84" y1="283.73" x2="642.29" y2="283.73"/><line class="cls-5" x1="423.84" y1="316.73" x2="606.83" y2="316.73"/></g><path class="cls-11" d="M446.2,135.6A226,226,0,0,1,477.08,250c0,125.41-101.67,227.08-227.08,227.08a226.17,226.17,0,0,1-98.92-22.62"/><path class="cls-11" d="M250,477.08C124.59,477.08,22.92,375.41,22.92,250"/></svg>