<?xml version="1.0" encoding="utf-8"?>
<!-- Generator: Adobe Illustrator 21.0.2, SVG Export Plug-In . SVG Version: 6.00 Build 0)  -->
<svg version="1.1" id="Layer_1" xmlns="http://www.w3.org/2000/svg" xmlns:xlink="http://www.w3.org/1999/xlink" x="0px" y="0px"
	 viewBox="0 0 1452 600" style="enable-background:new 0 0 1452 600;" xml:space="preserve">
<style type="text/css">
	.st0{fill:#FFFFFF;}
</style>
<g>
	<g>
		<path class="st0" d="M84,519.5L156,63l166,365.1L491.3,62.3l67.4,457.2h-49.3l-40.9-300.9L321.4,537.7L176.1,218.6l-42.8,300.9H84
			z"/>
		<path class="st0" d="M838.9,397.6H654.7l-51.9,121.9h-53.2L748.7,66.2l193.9,453.3h-53.2L838.9,397.6z M820.1,352.2l-72.6-173.2
			l-73.9,173.2H820.1z"/>
		<path class="st0" d="M1023.7,66.2c43.5,0,79.8,5.2,109,30.5c31.8,27.2,39.6,65.5,39.6,92.7c0,61-38.3,121.3-136.8,121.3h-42.2
			v208.8h-48V66.2H1023.7z M993.2,265.3h39.6c57.1,0,91.4-28.5,91.4-78.5c0-68.7-64.2-75.2-95.3-75.2h-35.7V265.3z"/>
	</g>
	<g>
		<path class="st0" d="M1368,273.9h-155.3l60.9-66.4c10.7-11.9,26.8-31.7,33.2-41.4c4.6-7.3,12.2-20.4,12.2-34.4
			c0-7.6-3-15.5-7.9-20.1c-4-3.7-10.7-5.8-18.6-5.8c-8.8,0-14.6,3-18.6,7.3c-5.5,6.1-8.5,17.1-8.5,25h-46.9
			c1.5-17.7,8.5-37.8,21-50.9c9.7-10.4,27.1-21,56-21c29.5,0,45.4,12.2,52.7,19.2c11,11,18.9,27.7,18.9,48.7
			c0,18-5.5,31.1-15.2,44.8c-8.8,12.2-19.5,22.5-32.6,35l-21.3,20.4h70V273.9z"/>
	</g>
</g>
<g>
	<g>
		<path class="st0" d="M84-932.2l72-456.6l166,365.1l169.3-365.8l67.4,457.2h-49.3l-40.9-300.9L321.4-914l-145.3-319.1l-42.8,300.9
			H84z"/>
		<path class="st0" d="M838.9-1054.1H654.7l-51.9,121.9h-53.2l199.1-453.3l193.9,453.3h-53.2L838.9-1054.1z M820.1-1099.5
			l-72.6-173.2l-73.9,173.2H820.1z"/>
		<path class="st0" d="M1023.7-1385.5c43.5,0,79.8,5.2,109,30.5c31.8,27.2,39.6,65.5,39.6,92.7c0,61-38.3,121.3-136.8,121.3h-42.2
			v208.8h-48v-453.3H1023.7z M993.2-1186.4h39.6c57.1,0,91.4-28.5,91.4-78.5c0-68.7-64.2-75.2-95.3-75.2h-35.7V-1186.4z"/>
	</g>
	<g>
		<path class="st0" d="M1368-1177.8h-155.3l60.9-66.4c10.7-11.9,26.8-31.7,33.2-41.4c4.6-7.3,12.2-20.4,12.2-34.4
			c0-7.6-3-15.5-7.9-20.1c-4-3.7-10.7-5.8-18.6-5.8c-8.8,0-14.6,3-18.6,7.3c-5.5,6.1-8.5,17.1-8.5,25h-46.9
			c1.5-17.7,8.5-37.8,21-50.9c9.7-10.4,27.1-21,56-21c29.5,0,45.4,12.2,52.7,19.2c11,11,18.9,27.7,18.9,48.7
			c0,18-5.5,31.1-15.2,44.8c-8.8,12.2-19.5,22.5-32.6,35l-21.3,20.4h70V-1177.8z"/>
	</g>
</g>
<path class="st0" d="M2103.4,32.6L1967,76.3l-136.4-43.7l-136.4,43.7v491.1l136.4-43.7l136.4,43.7l136.4-43.7l136.4,43.7V76.3
	L2103.4,32.6z M2181.3,408.2h-161.9l63.5-69.2c11.1-12.4,27.9-33,34.6-43.2c4.8-7.6,12.7-21.3,12.7-35.9c0-7.9-3.2-16.2-8.3-20.9
	c-4.1-3.8-11.1-6-19.4-6c-9.2,0-15.2,3.2-19.4,7.6c-5.7,6.3-8.9,17.8-8.9,26h-48.9c1.6-18.4,8.9-39.4,21.9-53
	c10.2-10.8,28.2-21.9,58.4-21.9c30.8,0,47.3,12.7,54.9,20c11.4,11.4,19.7,28.9,19.7,50.8c0,18.7-5.7,32.4-15.9,46.7
	c-9.2,12.7-20.3,23.5-34,36.5l-22.2,21.3h73V408.2z"/>
<text transform="matrix(1 0 0 1 123.0807 1254.8933)" style="font-family:'FuturaPT-Book'; font-size:475.5552px; letter-spacing:-42;">MAP</text>
<text transform="matrix(1 0 0 1 234.4786 -698.7407)" style="font-family:'FuturaPT-Book'; font-size:190.0378px;">[map square]</text>
<text transform="matrix(1 0 0 1 994.8068 1074.7712)" style="font-family:'FuturaPT-Heavy'; font-size:206.7463px; letter-spacing:-15;">2</text>
</svg>
