<svg id="Layer_1" data-name="Layer 1" xmlns="http://www.w3.org/2000/svg" viewBox="0 0 500 500"><defs><style>.cls-1{fill:#fff;}.cls-1,.cls-2,.cls-3,.cls-4,.cls-5,.cls-6,.cls-7{stroke:#222;stroke-miterlimit:10;}.cls-1,.cls-6{stroke-width:20px;}.cls-2{fill:#e6e6e6;}.cls-2,.cls-3,.cls-4,.cls-5{stroke-width:9px;}.cls-3,.cls-6{fill:none;}.cls-4{fill:#ef303b;}.cls-5,.cls-7{fill:#75ffc0;}.cls-7{stroke-width:10px;}</style></defs><title>who-1</title><circle class="cls-1" cx="250" cy="250" r="227.08"/><rect class="cls-2" x="83.85" y="330.49" width="332.31" height="25.99"/><rect class="cls-2" x="342.38" y="144.47" width="34.2" height="54"/><polygon class="cls-2" points="399.58 329.98 193.58 329.98 193.58 164.14 399.58 202.86 399.58 329.98"/><line class="cls-3" x1="107.43" y1="202.98" x2="107.43" y2="330.71"/><polygon class="cls-4" points="193.58 151.14 67.08 205.97 67.08 233.97 193.58 179.14 432.92 223.14 432.92 195.14 193.58 151.14"/><line class="cls-3" x1="107.43" y1="280.47" x2="193.58" y2="280.47"/><line class="cls-3" x1="107.43" y1="306.47" x2="193.58" y2="306.47"/><rect class="cls-5" x="234.58" y="226.81" width="30.45" height="30.45"/><rect class="cls-5" x="234.58" y="272.02" width="30.45" height="30.45"/><rect class="cls-5" x="280.26" y="226.81" width="30.45" height="30.45"/><rect class="cls-5" x="280.26" y="272.02" width="30.45" height="30.45"/><rect class="cls-5" x="325.63" y="226.81" width="30.45" height="30.45"/><rect class="cls-5" x="325.63" y="272.02" width="30.45" height="30.45"/><circle class="cls-6" cx="250" cy="250" r="227.08"/><path class="cls-7" d="M51.64,349.57H451.38S395.48,477.08,250,477.08,51.64,349.57,51.64,349.57Z"/></svg>