<svg id="Layer_1" data-name="Layer 1" xmlns="http://www.w3.org/2000/svg" viewBox="0 0 500 500"><defs><style>.cls-1{fill:#fff;}.cls-1,.cls-2,.cls-3,.cls-4,.cls-5,.cls-6{stroke:#222;stroke-miterlimit:10;}.cls-1,.cls-3{stroke-width:20px;}.cls-2,.cls-6{fill:#75ffc0;}.cls-2{stroke-width:10px;}.cls-3,.cls-5{fill:none;}.cls-4{fill:#e6e6e6;}.cls-4,.cls-5,.cls-6{stroke-width:9px;}</style></defs><title>who-2</title><circle class="cls-1" cx="250" cy="250" r="227.08"/><path class="cls-2" d="M51.64,349.57H451.38S395.48,477.08,250,477.08,51.64,349.57,51.64,349.57Z"/><circle class="cls-3" cx="250" cy="250" r="227.08"/><polygon class="cls-4" points="284.53 90.85 206.81 52.89 206.81 349.14 284.53 349.14 284.53 90.85"/><polygon class="cls-4" points="362.25 228.77 284.53 190.81 284.53 349.14 362.25 349.14 362.25 228.77"/><polygon class="cls-4" points="186.41 349.14 137.75 349.14 137.75 277.15 186.41 243.64 186.41 349.14"/><line class="cls-5" x1="245.67" y1="71.87" x2="245.67" y2="23.76"/><line class="cls-5" x1="323.39" y1="208.42" x2="323.39" y2="173.2"/><rect class="cls-6" x="153.64" y="286.59" width="16.88" height="16.88" rx="8.44" ry="8.44"/><rect class="cls-6" x="153.64" y="318.48" width="16.88" height="30.3"/><rect class="cls-6" x="300.38" y="278.32" width="46.03" height="19.34"/><rect class="cls-6" x="300.38" y="243.79" width="46.03" height="19.34"/><rect class="cls-6" x="300.38" y="314.85" width="46.03" height="34.72"/><rect class="cls-6" x="223.41" y="297.66" width="44.64" height="51.12"/><rect class="cls-6" x="223.41" y="108.12" width="44.64" height="170.76"/><line class="cls-5" x1="245.73" y1="108.12" x2="245.73" y2="278.32"/><line class="cls-5" x1="223.29" y1="164.95" x2="268.04" y2="164.95"/><line class="cls-5" x1="223.29" y1="221.97" x2="268.04" y2="221.97"/></svg>