<?xml version="1.0" encoding="utf-8"?>
<!-- Generator: Adobe Illustrator 21.0.2, SVG Export Plug-In . SVG Version: 6.00 Build 0)  -->
<svg version="1.1" id="Layer_1" xmlns="http://www.w3.org/2000/svg" xmlns:xlink="http://www.w3.org/1999/xlink" x="0px" y="0px"
	 viewBox="0 0 25 25" style="enable-background:new 0 0 25 25;" xml:space="preserve">
<style type="text/css">
	.st0{fill:#FFFFFF;}
</style>
<g>
	<path class="st0" d="M12.5,1.7c-4.4,0-8,3.6-8,8c0,4.1,6.5,11.8,7.2,12.7l0.8,0.9l0.8-0.9c0.7-0.9,7.2-8.5,7.2-12.7
		C20.5,5.3,16.9,1.7,12.5,1.7z M12.5,20.2c-2.2-2.7-6-7.9-6-10.4c0-3.3,2.7-6,6-6c3.3,0,6,2.7,6,6C18.5,12.3,14.7,17.5,12.5,20.2z"
		/>
	<path class="st0" d="M12.5,5.7c-2.2,0-4,1.8-4,4c0,2.2,1.8,4,4,4c2.2,0,4-1.8,4-4C16.5,7.5,14.7,5.7,12.5,5.7z M12.5,11.7
		c-1.1,0-2-0.9-2-2c0-1.1,0.9-2,2-2c1.1,0,2,0.9,2,2C14.5,10.8,13.6,11.7,12.5,11.7z"/>
</g>
</svg>
