<?xml version="1.0" encoding="utf-8"?>
<!-- Generator: Adobe Illustrator 21.0.2, SVG Export Plug-In . SVG Version: 6.00 Build 0)  -->
<svg version="1.1" id="Layer_1" xmlns="http://www.w3.org/2000/svg" xmlns:xlink="http://www.w3.org/1999/xlink" x="0px" y="0px"
	 viewBox="0 0 25 25" style="enable-background:new 0 0 25 25;" xml:space="preserve">
<style type="text/css">
	.st0{fill:#FFFFFF;}
</style>
<g>
	<g>
		<path class="st0" d="M18.3,24.2H4.1c-2.2,0-4-1.8-4-4V19c0-2.2,1.8-4,4-4h14.2c0.6,0,1,0.4,1,1c0,0.6-0.4,1-1,1H4.1
			c-1.1,0-2,0.9-2,2v1.2c0,1.1,0.9,2,2,2h14.2c0.6,0,1,0.4,1,1C19.3,23.7,18.8,24.2,18.3,24.2L18.3,24.2z"/>
	</g>
	<g>
		<path class="st0" d="M1.5,18.5c-0.2,0-0.4-0.1-0.6-0.2c-0.4-0.3-0.5-1-0.2-1.4l1.6-2c0.3-0.4,1-0.5,1.4-0.2c0.4,0.3,0.5,1,0.2,1.4
			l-1.6,2C2.1,18.4,1.8,18.5,1.5,18.5L1.5,18.5z"/>
	</g>
	<g>
		<path class="st0" d="M18.5,24.2c-0.2,0-0.4-0.1-0.6-0.2c-0.4-0.3-0.5-1-0.2-1.4l5.3-6.6c0.3-0.4,1-0.5,1.4-0.2
			c0.4,0.3,0.5,1,0.2,1.4l-5.3,6.6C19.1,24,18.8,24.2,18.5,24.2L18.5,24.2z"/>
	</g>
	<g>
		<path class="st0" d="M18.3,17c-0.2,0-0.5-0.1-0.6-0.2c-0.4-0.4-0.5-1-0.1-1.4l5.6-6.7c0.4-0.4,1-0.5,1.4-0.1
			c0.4,0.4,0.5,1,0.1,1.4l-5.6,6.7C18.9,16.9,18.6,17,18.3,17L18.3,17z"/>
	</g>
	<g>
		<path class="st0" d="M17.6,19.1H4c-0.3,0-0.5-0.2-0.5-0.5c0-0.3,0.2-0.5,0.5-0.5h13.6c0.3,0,0.5,0.2,0.5,0.5
			C18.1,18.9,17.9,19.1,17.6,19.1L17.6,19.1z"/>
	</g>
	<g>
		<path class="st0" d="M17.6,21H4c-0.3,0-0.5-0.2-0.5-0.5C3.5,20.2,3.7,20,4,20h13.6c0.3,0,0.5,0.2,0.5,0.5
			C18.1,20.8,17.9,21,17.6,21L17.6,21z"/>
	</g>
	<g>
		<path class="st0" d="M18.3,16.7H4.1c-2.2,0-4-1.8-4-4v-1.2c0-2.2,1.8-4,4-4h14.2c0.6,0,1,0.4,1,1c0,0.6-0.4,1-1,1H4.1
			c-1.1,0-2,0.9-2,2v1.2c0,1.1,0.9,2,2,2h14.2c0.6,0,1,0.4,1,1C19.3,16.2,18.8,16.7,18.3,16.7L18.3,16.7z"/>
	</g>
	<g>
		<path class="st0" d="M6.8,4.5c-0.2,0-0.4-0.1-0.6-0.2C5.7,4,5.6,3.4,6,2.9c0.7-1,1.7-2.2,3.5-2.1l14.4,0c0.6,0,1,0.4,1,1
			c0,0.6-0.4,1-1,1H9.5c-0.8,0-1.1,0.3-1.9,1.3C7.4,4.4,7.1,4.5,6.8,4.5L6.8,4.5z"/>
	</g>
	<g>
		<path class="st0" d="M1.5,11C1.3,11,1,11,0.9,10.8c-0.4-0.3-0.5-1-0.2-1.4L6,2.8c0.3-0.4,1-0.5,1.4-0.2c0.4,0.3,0.5,1,0.2,1.4
			l-5.3,6.6C2.1,10.9,1.8,11,1.5,11L1.5,11z"/>
	</g>
	<g>
		<path class="st0" d="M18.5,16.7c-0.2,0-0.4-0.1-0.6-0.2c-0.4-0.3-0.5-1-0.2-1.4l5.3-6.6c0.3-0.4,1-0.5,1.4-0.2
			c0.4,0.3,0.5,1,0.2,1.4l-5.3,6.6C19.1,16.5,18.8,16.7,18.5,16.7L18.5,16.7z"/>
	</g>
	<g>
		<path class="st0" d="M18.3,9.5c-0.2,0-0.5-0.1-0.6-0.2c-0.4-0.4-0.5-1-0.1-1.4l5.6-6.7c0.4-0.4,1-0.5,1.4-0.1
			c0.4,0.4,0.5,1,0.1,1.4l-5.6,6.7C18.9,9.4,18.6,9.5,18.3,9.5L18.3,9.5z"/>
	</g>
	<g>
		<path class="st0" d="M17.6,11.6H4c-0.3,0-0.5-0.2-0.5-0.5c0-0.3,0.2-0.5,0.5-0.5h13.6c0.3,0,0.5,0.2,0.5,0.5
			C18.1,11.4,17.9,11.6,17.6,11.6L17.6,11.6z"/>
	</g>
	<g>
		<path class="st0" d="M17.6,13.5H4c-0.3,0-0.5-0.2-0.5-0.5c0-0.3,0.2-0.5,0.5-0.5h13.6c0.3,0,0.5,0.2,0.5,0.5
			C18.1,13.3,17.9,13.5,17.6,13.5L17.6,13.5z"/>
	</g>
</g>
</svg>
