<?xml version="1.0" encoding="utf-8"?>
<!-- Generator: Adobe Illustrator 21.0.2, SVG Export Plug-In . SVG Version: 6.00 Build 0)  -->
<svg version="1.1" id="Layer_1" xmlns="http://www.w3.org/2000/svg" xmlns:xlink="http://www.w3.org/1999/xlink" x="0px" y="0px"
	 viewBox="0 0 25 25" style="enable-background:new 0 0 25 25;" xml:space="preserve">
<style type="text/css">
	.st0{fill:#FFFFFF;}
</style>
<path class="st0" d="M20.4,1.6c-0.4-0.2-0.8-0.1-1.1,0.2L15,6.1l-4.3-4.3c0,0,0,0,0,0c0,0-0.1-0.1-0.1-0.1c0,0-0.1-0.1-0.1-0.1
	c0,0,0,0,0,0c0,0-0.1,0-0.1,0c-0.1,0-0.1,0-0.2,0c0,0-0.1,0-0.1,0c-0.1,0-0.1,0-0.2,0c0,0-0.1,0-0.1,0c0,0-0.1,0-0.1,0c0,0,0,0,0,0
	c0,0-0.1,0-0.1,0.1c0,0-0.1,0.1-0.1,0.1c0,0,0,0,0,0l-5,5C4.1,7,4,7.2,4,7.5v15c0,0.4,0.2,0.8,0.6,0.9c0.1,0.1,0.3,0.1,0.4,0.1
	c0.3,0,0.5-0.1,0.7-0.3l4.3-4.3l4.3,4.3c0,0,0,0,0,0c0.1,0.1,0.2,0.2,0.3,0.2l0,0c0,0,0.1,0,0.1,0c0.1,0,0.2,0,0.3,0
	c0.1,0,0.3,0,0.4-0.1h0c0.1,0,0.2-0.1,0.3-0.2c0,0,0,0,0,0l5-5c0.2-0.2,0.3-0.4,0.3-0.7v-15C21,2.1,20.8,1.7,20.4,1.6z M6,7.9l3-3
	v12.2l-3,3V7.9z M11,4.9l3,3v12.2l-3-3V4.9z M19,17.1l-3,3V7.9l3-3V17.1z"/>
</svg>
