<?xml version="1.0" encoding="utf-8"?>
<!-- Generator: Adobe Illustrator 21.0.2, SVG Export Plug-In . SVG Version: 6.00 Build 0)  -->
<svg version="1.1" id="Layer_1" xmlns="http://www.w3.org/2000/svg" xmlns:xlink="http://www.w3.org/1999/xlink" x="0px" y="0px"
	 viewBox="0 0 25 25" style="enable-background:new 0 0 25 25;" xml:space="preserve">
<style type="text/css">
	.st0{fill:#FFFFFF;}
</style>
<path class="st0" d="M12.5,0.5c-6.6,0-12,5.4-12,12c0,6.6,5.4,12,12,12c2,0,3.9-0.5,5.7-1.4l1.2-0.6l-4.5-4.5l-0.6,0.2
	c-0.6,0.2-1.3,0.3-2,0.3c-1.6,0-3.1-0.6-4.2-1.8c-1.2-1.2-1.8-2.9-1.7-4.6l3.2,3.2c1.1,1.1,3.1,1.1,4.2,0l1.4-1.4
	c0.6-0.6,0.9-1.3,0.9-2.1c0-0.8-0.3-1.6-0.9-2.1l-3.2-3.2c1.7-0.1,3.4,0.5,4.6,1.7c1.6,1.6,2.2,4.1,1.4,6.3l-0.2,0.6l4.5,4.5
	l0.7-1.1c1-1.8,1.6-3.9,1.6-6C24.5,5.9,19.1,0.5,12.5,0.5z M21.7,16.3L20,14.5c0.7-2.7,0-5.7-2.1-7.7c-1.5-1.5-3.5-2.3-5.6-2.3
	c-0.9,0-1.8,0.2-2.7,0.5L8.1,5.4l5.6,5.6c0.2,0.2,0.3,0.4,0.3,0.7s-0.1,0.5-0.3,0.7l-1.4,1.4c-0.4,0.4-1,0.4-1.4,0L5.2,8.3L4.7,9.8
	c-1,2.9-0.3,6.2,1.9,8.3c1.5,1.5,3.5,2.3,5.6,2.3c0.7,0,1.4-0.1,2.1-0.3l1.7,1.7c-1.1,0.4-2.3,0.6-3.5,0.6c-5.5,0-10-4.5-10-10
	c0-5.5,4.5-10,10-10c5.5,0,10,4.5,10,10C22.5,13.8,22.2,15.1,21.7,16.3z"/>
</svg>
