<?xml version="1.0" encoding="utf-8"?>
<!-- Generator: Adobe Illustrator 21.0.2, SVG Export Plug-In . SVG Version: 6.00 Build 0)  -->
<svg version="1.1" id="Layer_1" xmlns="http://www.w3.org/2000/svg" xmlns:xlink="http://www.w3.org/1999/xlink" x="0px" y="0px"
	 viewBox="0 0 25 25" style="enable-background:new 0 0 25 25;" xml:space="preserve">
<style type="text/css">
	.st0{fill:#FFFFFF;}
</style>
<g>
	<path class="st0" d="M5.5,24.1l0.8-0.9c0.7-0.8,4.2-5.2,4.2-7.7c0-2.7-2.2-5-5-5c-2.7,0-5,2.2-5,5c0,2.4,3.5,6.8,4.2,7.7L5.5,24.1z
		 M5.5,12.5c1.6,0,3,1.3,3,3c0,1.1-1.6,3.5-3,5.4c-1.4-1.9-3-4.3-3-5.4C2.5,13.8,3.9,12.5,5.5,12.5z"/>
	<circle class="st0" cx="5.5" cy="15.5" r="1"/>
	<path class="st0" d="M19.5,0.5c-2.7,0-5,2.2-5,5c0,2.4,3.5,6.8,4.2,7.7l0.8,0.9l0.8-0.9c0.7-0.8,4.2-5.2,4.2-7.7
		C24.5,2.7,22.2,0.5,19.5,0.5z M19.5,10.9c-1.4-1.9-3-4.3-3-5.4c0-1.6,1.3-3,3-3c1.6,0,3,1.3,3,3C22.5,6.6,20.9,9,19.5,10.9z"/>
	<circle class="st0" cx="19.5" cy="5.5" r="1"/>
	<polygon class="st0" points="18.5,22.5 9.5,22.5 9.5,24.5 20.5,24.5 20.5,16.5 18.5,16.5 	"/>
</g>
</svg>
