<svg id="Layer_1" data-name="Layer 1" xmlns="http://www.w3.org/2000/svg" xmlns:xlink="http://www.w3.org/1999/xlink" viewBox="0 0 500 500"><defs><style>.cls-1,.cls-3,.cls-7,.cls-9{fill:none;}.cls-2,.cls-8{fill:#e6e6e6;}.cls-2,.cls-4,.cls-6,.cls-7,.cls-8,.cls-9{stroke:#222;}.cls-2,.cls-3,.cls-4,.cls-6,.cls-7,.cls-8,.cls-9{stroke-miterlimit:10;}.cls-2,.cls-9{stroke-width:20px;}.cls-3{stroke:#ef303b;}.cls-3,.cls-4,.cls-6,.cls-7,.cls-8{stroke-width:10px;}.cls-4{fill:#75ffc0;}.cls-5{clip-path:url(#clip-path);}.cls-6{fill:#fff;}</style><clipPath id="clip-path"><path class="cls-1" d="M22.07,19.77l1.44,252.75S18,315,52.46,360.39s97.77,90.92,97.77,90.92l92.37-8.37,70.64-238.88-40-131.42-24-75.79Z"/></clipPath></defs><title>how-5</title><circle class="cls-2" cx="250" cy="250" r="227.08"/><path class="cls-3" d="M311.65,368.32c-47.92-2.93-92.7-51.57-94-116.63"/><path class="cls-3" d="M393.85,186.59c26.8,37.41,29.94,86.34,8,124.84-16.14,28.38-49.7,59.37-90.24,56.89"/><rect class="cls-4" x="188.67" y="222.71" width="57.97" height="57.97"/><rect class="cls-4" x="294" y="339.34" width="57.97" height="57.97"/><rect class="cls-4" x="358.4" y="157.6" width="57.97" height="57.97"/><g class="cls-5"><rect class="cls-6" x="41.28" y="48.4" width="208.72" height="363.1" rx="14.54" ry="14.54"/><line class="cls-7" x1="46.84" y1="361.09" x2="250" y2="361.09"/><line class="cls-7" x1="46.84" y1="75.79" x2="250" y2="75.79"/><rect class="cls-8" x="73.07" y="100.32" width="145.15" height="134.96"/><path class="cls-3" d="M145.63,207.21c-20.16-1.23-39-21.69-39.54-49.07"/><path class="cls-3" d="M180.21,130.75c11.27,15.74,12.59,36.32,3.38,52.52-6.79,11.94-20.91,25-38,23.93"/><rect class="cls-4" x="93.89" y="145.95" width="24.39" height="24.39"/><rect class="cls-4" x="167.65" y="118.56" width="24.39" height="24.39"/><rect class="cls-4" x="145.63" y="192.8" width="24.39" height="24.39"/><line class="cls-9" x1="74.25" y1="268.03" x2="180.28" y2="268.03"/><line class="cls-7" x1="74.25" y1="313.1" x2="189.07" y2="313.1"/><line class="cls-7" x1="74.25" y1="336.16" x2="212.85" y2="336.16"/></g><path class="cls-9" d="M250,477.08C124.59,477.08,22.92,375.41,22.92,250"/></svg>