<?xml version="1.0" encoding="utf-8"?>
<!-- Generator: Adobe Illustrator 21.0.2, SVG Export Plug-In . SVG Version: 6.00 Build 0)  -->
<svg version="1.1" id="Layer_1" xmlns="http://www.w3.org/2000/svg" xmlns:xlink="http://www.w3.org/1999/xlink" x="0px" y="0px"
	 viewBox="0 0 2267 647.9" style="enable-background:new 0 0 2267 647.9;" xml:space="preserve">
<style type="text/css">
	.st0{fill:#FFFFFF;}
	.st1{fill:none;stroke:#FFFFFF;stroke-width:20;stroke-miterlimit:10;}
</style>
<g>
	<g>
		<g>
			<path class="st0" d="M55.6,543.5l72-456.6l166,365.1L462.9,86.3l67.4,457.2H481l-40.9-300.9L292.9,561.6L147.7,242.5l-42.8,300.9
				H55.6z"/>
			<path class="st0" d="M810.5,421.5H626.3l-51.9,121.9h-53.2L720.3,90.1l193.9,453.3H861L810.5,421.5z M791.6,376.1L719,203
				l-73.9,173.2H791.6z"/>
			<path class="st0" d="M995.3,90.1c43.5,0,79.8,5.2,109,30.5c31.8,27.2,39.6,65.5,39.6,92.7c0,61-38.3,121.3-136.8,121.3h-42.2
				v208.8h-48V90.1H995.3z M964.8,289.2h39.6c57.1,0,91.4-28.5,91.4-78.5c0-68.7-64.2-75.2-95.3-75.2h-35.7V289.2z"/>
		</g>
		<g>
			<path class="st0" d="M1339.6,297.8h-155.3l60.9-66.4c10.7-11.9,26.8-31.7,33.2-41.4c4.6-7.3,12.2-20.4,12.2-34.4
				c0-7.6-3-15.5-7.9-20.1c-4-3.7-10.7-5.8-18.6-5.8c-8.8,0-14.6,3-18.6,7.3c-5.5,6.1-8.5,17.1-8.5,25h-46.9
				c1.5-17.7,8.5-37.8,21-50.9c9.7-10.4,27.1-21,56-21c29.5,0,45.4,12.2,52.7,19.2c11,11,18.9,27.7,18.9,48.7
				c0,18-5.5,31.1-15.2,44.8c-8.8,12.2-19.5,22.5-32.6,35l-21.3,20.4h70V297.8z"/>
		</g>
	</g>
	<path class="st0" d="M2075,56.5l-136.4,43.7l-136.4-43.7l-136.4,43.7v491.1l136.4-43.7l136.4,43.7l136.4-43.7l136.4,43.7V100.2
		L2075,56.5z M2152.9,432.2H1991l63.5-69.2c11.1-12.4,27.9-33,34.6-43.2c4.8-7.6,12.7-21.3,12.7-35.9c0-7.9-3.2-16.2-8.3-20.9
		c-4.1-3.8-11.1-6-19.4-6c-9.2,0-15.2,3.2-19.4,7.6c-5.7,6.3-8.9,17.8-8.9,26h-48.9c1.6-18.4,8.9-39.4,21.9-53
		c10.2-10.8,28.2-21.9,58.4-21.9c30.8,0,47.3,12.7,54.9,20c11.4,11.4,19.7,28.9,19.7,50.8c0,18.7-5.7,32.4-15.9,46.7
		c-9.2,12.7-20.3,23.5-34,36.5l-22.2,21.3h73V432.2z"/>
	<line class="st1" x1="1487" y1="445.2" x2="1487" y2="202.7"/>
</g>
</svg>
