<svg id="Layer_1" data-name="Layer 1" xmlns="http://www.w3.org/2000/svg" xmlns:xlink="http://www.w3.org/1999/xlink" viewBox="0 0 500 500"><defs><style>.cls-1,.cls-7{fill:none;}.cls-2{fill:#75ffc0;}.cls-2,.cls-3,.cls-6,.cls-7{stroke:#222;}.cls-2,.cls-3,.cls-4,.cls-6,.cls-7{stroke-miterlimit:10;}.cls-2,.cls-7{stroke-width:20px;}.cls-3{fill:#e6e6e6;}.cls-3,.cls-6{stroke-width:9px;}.cls-4{fill:#fff;stroke:#000;stroke-width:10px;}.cls-5{clip-path:url(#clip-path);}.cls-6{fill:#ef303b;}</style><clipPath id="clip-path"><circle class="cls-1" cx="250" cy="250" r="227.08"/></clipPath></defs><title>newsletter</title><circle class="cls-2" cx="250" cy="250" r="227.08"/><path class="cls-3" d="M281.57,471.89H218.43a150,150,0,0,1-150-150V273.69L251.51,150.63,431.57,273.69v48.21A150,150,0,0,1,281.57,471.89Z"/><path class="cls-4" d="M322,81.82l-72,23-72-23-72,23v259l72-23,72,23,72-23,72,23v-259Zm41.1,198.12H277.67l33.48-36.5c5.86-6.53,14.73-17.41,18.25-22.77,2.51-4,6.7-11.22,6.7-18.92,0-4.19-1.67-8.54-4.35-11-2.18-2-5.86-3.18-10.21-3.18-4.85,0-8,1.67-10.21,4-3,3.35-4.69,9.37-4.69,13.73H280.85c.84-9.71,4.69-20.76,11.55-28,5.36-5.69,14.9-11.55,30.8-11.55,16.24,0,24.94,6.7,29,10.55,6,6,10.38,15.23,10.38,26.79,0,9.88-3,17.08-8.37,24.61-4.85,6.7-10.71,12.39-17.91,19.25l-11.72,11.22h38.51Z"/><g class="cls-5"><rect class="cls-6" x="68.43" y="396.79" width="363.14" height="75.1"/><polyline class="cls-6" points="250.19 405.79 250.19 357.79 431.57 286.69 431.57 471.89 349.49 405.79 265.42 405.79 234.58 405.79 150.51 405.79 68.43 471.89 68.43 286.69 249.81 357.79 249.81 405.79"/></g><circle class="cls-7" cx="250" cy="250" r="227.08"/></svg>